{"title":"Shutter.Island.2010.1080p.BluRay.DTS.x264-LTT","uid":5575739,"size":8110939000,"categoryP":"video","categoryS":"hd___movies","magnet":"?xt=urn:btih:6eae44922625e7efbaf6cd6ae0f1582201720f9e&amp;dn=Shutter.Island.2010.1080p.BluRay.DTS.x264-LTT&amp;tr=udp%3A%2F%2Ftracker.openbittorrent.com%3A80&amp;tr=udp%3A%2F%2Fopen.demonii.com%3A1337&amp;tr=udp%3A%2F%2Ftracker.coppersurfer.tk%3A6969&amp;tr=udp%3A%2F%2Fexodus.desync.com%3A6969","seeders":19,"leechers":4,"uploader":"Ltt_01","files":2,"time":1274379920,"description":"Shutter.Island.2010.1080p.BluRay.mkv\n************************************\n\nTiTLE......  Shutter Island\nYEAR.......  2010\nGENRE......  Drama | Mystery | Thriller \niMDB RATE..  User Rating: 8.1/10 (67,770 votes)\niMDB URL... &lt;a href=&quot; http://www.imdb.com/title/tt1130884/&quot; rel=&quot;nofollow&quot; target=&quot;_NEW&quot;&gt; http://www.imdb.com/title/tt1130884/&lt;/a&gt;\n*************************************************\n\nVideo\nDuration                         : 2h 18mn\nOverall bit rate                 : 7 832 Kbps\nWidth                            : 1 920 pixels\nHeight                           : 816 pixels\nDisplay aspect ratio             : 2.35:1\nFrame rate                       : 23.976 fps\nStream size                      : 5.94 GiB (79%)\n\nAudio\nFormat                           : DTS\nBit rate                         : 1 510 Kbps\nChannel(s)                       : 6 channels\nChannel positions                : Front: L C R, Surround: L R, LFE\nSampling rate                    : 48.0 KHz\nStream size                      : 1.46 GiB (19%)\nLanguage                         : English\n\nSubtitles: English, French\n**************************\n\n\n","torrent":{"xt":"urn:btih:6eae44922625e7efbaf6cd6ae0f1582201720f9e","amp;dn":"Shutter.Island.2010.1080p.BluRay.DTS.x264-LTT","amp;tr":["udp%3A%2F%2Ftracker.openbittorrent.com%3A80","udp%3A%2F%2Fopen.demonii.com%3A1337","udp%3A%2F%2Ftracker.coppersurfer.tk%3A6969","udp%3A%2F%2Fexodus.desync.com%3A6969"],"infoHash":"6eae44922625e7efbaf6cd6ae0f1582201720f9e","infoHashBuffer":{"type":"Buffer","data":[110,174,68,146,38,37,231,239,186,246,205,106,224,241,88,34,1,114,15,158]},"announce":[],"urlList":[]}}